<svg width="15" height="13" viewBox="0 0 15 13" fill="none" xmlns="http://www.w3.org/2000/svg">
<path d="M3.83333 4.54167H10.9167M3.83333 7.375H7.375M13.75 12.3333L11.3953 11.1559C11.2168 11.0667 11.1275 11.0221 11.034 10.9906C10.9509 10.9627 10.8655 10.9425 10.7787 10.9303C10.6809 10.9167 10.5811 10.9167 10.3816 10.9167H3.26667C2.47326 10.9167 2.07655 10.9167 1.77351 10.7622C1.50695 10.6265 1.29023 10.4097 1.15441 10.1432C1 9.84014 1 9.4434 1 8.65V3.26667C1 2.47326 1 2.07655 1.15441 1.77351C1.29023 1.50695 1.50695 1.29023 1.77351 1.15441C2.07655 1 2.47326 1 3.26667 1H11.4833C12.2767 1 12.6735 1 12.9765 1.15441C13.243 1.29023 13.4598 1.50695 13.5956 1.77351C13.75 2.07655 13.75 2.47326 13.75 3.26667V12.3333Z" stroke="white" stroke-linecap="round" stroke-linejoin="round"/>
</svg>
