<svg width="17" height="17" viewBox="0 0 17 17" fill="none" xmlns="http://www.w3.org/2000/svg">
<path d="M12.7493 15.5834H2.36046C2.10998 15.5834 1.86975 15.4839 1.69264 15.3068C1.51552 15.1297 1.41602 14.8895 1.41602 14.639V4.25011C1.41602 3.99963 1.51552 3.7594 1.69264 3.58229C1.86975 3.40517 2.10998 3.30566 2.36046 3.30566H7.08268V4.25011H2.36046V14.639H12.7493V9.91677H13.6938V14.639C13.6938 14.8895 13.5943 15.1297 13.4172 15.3068C13.2401 15.4839 12.9998 15.5834 12.7493 15.5834Z" fill="black"/>
<path d="M8.49986 1.41675C8.37462 1.41675 8.25451 1.4665 8.16595 1.55506C8.07739 1.64362 8.02764 1.76373 8.02764 1.88897C8.02764 2.01421 8.07739 2.13432 8.16595 2.22288C8.25451 2.31144 8.37462 2.36119 8.49986 2.36119H13.9729L7.43264 8.90147C7.38321 8.9438 7.34306 8.9959 7.31471 9.05448C7.28637 9.11307 7.27044 9.17688 7.26793 9.24192C7.26542 9.30695 7.27638 9.3718 7.30012 9.4324C7.32386 9.493 7.35987 9.54803 7.40589 9.59406C7.45191 9.64008 7.50695 9.67609 7.56754 9.69983C7.62814 9.72357 7.69299 9.73453 7.75803 9.73201C7.82306 9.7295 7.88687 9.71357 7.94546 9.68523C8.00405 9.65689 8.05614 9.61674 8.09847 9.5673L14.6388 3.02703V8.50008C14.6388 8.62532 14.6885 8.74543 14.7771 8.83399C14.8656 8.92255 14.9857 8.9723 15.111 8.9723C15.2362 8.9723 15.3563 8.92255 15.4449 8.83399C15.5334 8.74543 15.5832 8.62532 15.5832 8.50008V1.41675H8.49986Z" fill="black"/>
</svg>
