<svg width="22" height="22" viewBox="0 0 22 22" fill="none" xmlns="http://www.w3.org/2000/svg">
<g clip-path="url(#clip0_2046_446)">
<path fill-rule="evenodd" clip-rule="evenodd" d="M19.2558 7.58091C20.3438 8.36467 21.0827 9.57925 21.0827 11.0001C21.0827 12.4209 20.3438 13.6364 19.2558 14.4192C19.4758 15.7411 19.1329 17.1307 18.131 18.1317C17.1273 19.1355 15.7385 19.4692 14.4222 19.2547C13.6421 20.3464 12.4165 21.0834 10.9993 21.0834C9.57852 21.0834 8.36118 20.3437 7.57927 19.2537C6.2611 19.4692 4.87143 19.1364 3.86677 18.1317C2.86302 17.128 2.52935 15.7383 2.75118 14.4192C1.66402 13.6373 0.916016 12.4218 0.916016 11.0001C0.916016 9.57833 1.66402 8.36191 2.75118 7.58091C2.52935 6.26183 2.86302 4.87216 3.86768 3.86841C4.8696 2.86558 6.26018 2.52366 7.5866 2.74366C8.36393 1.65375 9.58127 0.916748 10.9993 0.916748C12.4156 0.916748 13.6393 1.65283 14.4203 2.74366C15.7422 2.52366 17.13 2.86741 18.131 3.86841C19.1329 4.86941 19.4767 6.25908 19.2558 7.58091ZM15.1986 7.50391C15.2966 7.57385 15.3799 7.6624 15.4436 7.76451C15.5074 7.86663 15.5504 7.9803 15.5703 8.09905C15.5901 8.2178 15.5863 8.33928 15.5592 8.45658C15.5321 8.57388 15.4821 8.68468 15.4122 8.78266L10.8288 15.1993C10.7515 15.3077 10.6514 15.3979 10.5357 15.4637C10.4199 15.5295 10.2912 15.5692 10.1585 15.5802C10.0258 15.5912 9.8923 15.5732 9.76729 15.5273C9.64227 15.4815 9.52874 15.409 9.4346 15.3148L6.6846 12.5648C6.51762 12.3919 6.42523 12.1604 6.42731 11.92C6.4294 11.6797 6.52581 11.4498 6.69577 11.2798C6.86572 11.1099 7.09563 11.0135 7.33598 11.0114C7.57633 11.0093 7.80788 11.1017 7.98077 11.2687L9.96535 13.2532L13.9198 7.71658C14.0612 7.51881 14.2754 7.38531 14.5152 7.34542C14.755 7.30554 15.0008 7.36255 15.1986 7.50391Z" fill="#3AA0FF"/>
</g>
<defs>
<clipPath id="clip0_2046_446">
<rect width="22" height="22" fill="white"/>
</clipPath>
</defs>
</svg>
