<svg width="16" height="16" viewBox="0 0 16 16" fill="none" xmlns="http://www.w3.org/2000/svg">
<path fill-rule="evenodd" clip-rule="evenodd" d="M8.00001 2.66671C6.52725 2.66671 5.33334 3.86061 5.33334 5.33337C5.33334 6.80613 6.52725 8.00004 8.00001 8.00004C9.47277 8.00004 10.6667 6.80613 10.6667 5.33337C10.6667 3.86061 9.47276 2.66671 8.00001 2.66671ZM10.4273 8.51296C11.3833 7.78203 12 6.62972 12 5.33337C12 3.12423 10.2091 1.33337 8.00001 1.33337C5.79087 1.33337 4.00001 3.12423 4.00001 5.33337C4.00001 6.62972 4.61668 7.78203 5.57268 8.51296C4.90236 8.80948 4.28567 9.22909 3.75737 9.7574C3.34941 10.1654 3.00624 10.6261 2.73452 11.1234C2.23311 12.0413 2.43759 12.9772 3.00227 13.639C3.54587 14.276 4.41669 14.6667 5.33334 14.6667H10.6667C11.5833 14.6667 12.4541 14.276 12.9977 13.639C13.5624 12.9772 13.7669 12.0413 13.2655 11.1234C12.9938 10.6261 12.6506 10.1654 12.2426 9.7574C11.7143 9.22909 11.0976 8.80948 10.4273 8.51296ZM8.00001 9.33337C6.76233 9.33337 5.57534 9.82504 4.70017 10.7002C4.38284 11.0175 4.11596 11.3758 3.90464 11.7627C3.7 12.1373 3.76602 12.4799 4.01654 12.7735C4.28814 13.0918 4.77723 13.3334 5.33334 13.3334H10.6667C11.2228 13.3334 11.7119 13.0918 11.9835 12.7735C12.234 12.4799 12.3 12.1373 12.0954 11.7627C11.884 11.3758 11.6172 11.0175 11.2998 10.7002C10.4247 9.82504 9.23768 9.33337 8.00001 9.33337Z" fill="#57606E"/>
</svg>
