<svg width="512" height="512" viewBox="0 0 512 512" fill="none" xmlns="http://www.w3.org/2000/svg">
<g clip-path="url(#clip0_140_283)">
<path d="M72.2778 85.5798C74.0959 85.5725 75.9139 85.5639 77.7319 85.5542C82.6368 85.5321 87.5414 85.529 92.4462 85.5309C96.5517 85.531 100.657 85.5225 104.763 85.5141C114.45 85.495 124.137 85.492 133.824 85.4988C143.799 85.5054 153.773 85.4825 163.748 85.4455C172.334 85.4147 180.921 85.4034 189.507 85.4073C194.626 85.4094 199.744 85.404 204.863 85.3794C209.675 85.3571 214.486 85.3591 219.298 85.3793C221.058 85.3827 222.818 85.3777 224.578 85.3634C242.499 85.2274 242.499 85.2274 250 90.9998C255.682 97.0411 256.367 102.703 256.27 110.703C255.81 116.321 254.218 119.965 250.059 123.781C244.618 128.029 240.902 129.124 233.942 129.138C232.858 129.142 232.858 129.142 231.751 129.146C229.322 129.155 226.892 129.156 224.462 129.157C222.723 129.162 220.983 129.167 219.244 129.173C215.494 129.184 211.743 129.193 207.993 129.199C202.059 129.21 196.125 129.23 190.191 129.252C173.315 129.314 156.44 129.368 139.564 129.401C130.247 129.419 120.93 129.448 111.613 129.489C106.683 129.51 101.754 129.526 96.8248 129.528C92.1839 129.53 87.5433 129.546 82.9026 129.572C81.2035 129.58 79.5044 129.582 77.8053 129.578C66.7482 129.56 57.4018 129.729 48.5078 137.011C43.3577 143.803 43.572 151.345 43.6191 159.487C43.6144 160.734 43.6097 161.98 43.6049 163.265C43.595 166.709 43.5985 170.153 43.6078 173.597C43.6146 177.317 43.6041 181.038 43.5959 184.758C43.5826 192.04 43.5854 199.323 43.5941 206.605C43.6009 212.524 43.6018 218.443 43.5986 224.363C43.5981 225.206 43.5976 226.049 43.5972 226.918C43.5962 228.63 43.5952 230.343 43.5943 232.056C43.5857 248.11 43.5955 264.164 43.6117 280.218C43.6251 293.987 43.6227 307.756 43.6089 321.526C43.5928 337.523 43.5865 353.52 43.5957 369.517C43.5967 371.224 43.5976 372.93 43.5986 374.637C43.599 375.476 43.5995 376.316 43.6 377.181C43.6026 383.092 43.5982 389.003 43.5911 394.914C43.5827 402.119 43.585 409.324 43.601 416.53C43.6088 420.205 43.612 423.879 43.602 427.554C43.5914 431.54 43.6041 435.526 43.6191 439.513C43.6124 440.671 43.6057 441.829 43.5988 443.022C43.6546 450.686 44.2561 456.75 49.375 462.812C54.8882 467.407 59.1178 469.122 66.2332 469.131C67.8314 469.137 67.8314 469.137 69.4618 469.143C70.6315 469.142 71.8011 469.141 73.0062 469.14C74.2494 469.143 75.4927 469.146 76.7736 469.149C80.2266 469.156 83.6796 469.159 87.1326 469.16C90.856 469.162 94.5793 469.169 98.3027 469.176C106.445 469.19 114.588 469.196 122.731 469.2C127.815 469.203 132.899 469.207 137.984 469.211C152.061 469.224 166.138 469.234 180.215 469.237C181.116 469.238 182.017 469.238 182.945 469.238C183.849 469.238 184.752 469.238 185.682 469.239C187.512 469.239 189.342 469.24 191.172 469.24C192.08 469.24 192.988 469.24 193.923 469.241C208.632 469.245 223.341 469.262 238.05 469.285C253.152 469.309 268.253 469.322 283.355 469.323C291.834 469.324 300.313 469.329 308.792 469.348C316.012 469.363 323.232 469.368 330.452 469.36C334.135 469.356 337.818 469.357 341.501 469.371C345.496 469.386 349.491 469.378 353.486 469.367C354.647 469.375 355.807 469.383 357.003 469.392C364.231 469.347 370.32 468.834 376.242 464.273C376.781 463.647 377.32 463.02 377.875 462.375C378.429 461.764 378.984 461.153 379.555 460.523C384.445 451.985 383.274 441.279 383.24 431.765C383.241 430.023 383.243 428.281 383.246 426.539C383.25 422.802 383.249 419.065 383.244 415.328C383.236 409.415 383.247 403.501 383.261 397.588C383.299 380.778 383.317 363.969 383.305 347.159C383.299 337.864 383.311 328.569 383.342 319.274C383.36 313.4 383.357 307.526 383.338 301.651C383.331 297.994 383.345 294.337 383.365 290.679C383.37 288.988 383.366 287.297 383.354 285.605C383.238 269.018 383.238 269.018 389 263C395.27 257.189 400.088 256.533 408.516 256.699C413.16 257.1 416.465 257.9 420 261C425.124 267.238 427.15 272.251 427.14 280.296C427.145 281.42 427.145 281.42 427.149 282.566C427.158 285.083 427.16 287.599 427.161 290.116C427.166 291.918 427.171 293.72 427.176 295.522C427.189 300.426 427.196 305.329 427.2 310.233C427.203 313.299 427.207 316.365 427.212 319.432C427.225 329.034 427.235 338.635 427.239 348.237C427.243 359.305 427.261 370.373 427.29 381.44C427.312 390.003 427.322 398.565 427.323 407.128C427.324 412.237 427.33 417.346 427.348 422.456C427.364 427.271 427.366 432.085 427.358 436.9C427.357 438.659 427.361 440.417 427.371 442.176C427.478 462.338 423.424 479.945 409 495C399.808 503.807 386.14 512.239 373.123 512.257C371.965 512.263 370.807 512.27 369.614 512.277C368.351 512.273 367.088 512.27 365.786 512.267C364.424 512.271 363.061 512.276 361.699 512.281C357.959 512.293 354.22 512.293 350.481 512.291C346.446 512.29 342.411 512.301 338.376 512.311C330.473 512.327 322.569 512.333 314.665 512.334C308.239 512.335 301.813 512.339 295.387 512.345C277.161 512.363 258.936 512.372 240.71 512.371C239.237 512.37 239.237 512.37 237.733 512.37C236.75 512.37 235.766 512.37 234.753 512.37C218.817 512.369 202.882 512.388 186.946 512.417C170.578 512.445 154.209 512.459 137.841 512.457C128.654 512.457 119.467 512.462 110.28 512.484C102.456 512.502 94.6327 512.506 86.8092 512.493C82.82 512.486 78.831 512.486 74.8418 512.504C71.1842 512.519 67.5272 512.516 63.8696 512.499C61.9315 512.494 59.9933 512.509 58.0552 512.525C50.2785 512.464 44.1052 511.159 37 508C35.9907 507.565 34.9813 507.131 33.9414 506.683C18.3005 498.49 8.1246 485.447 2.00002 469C-0.209483 461.926 -0.286139 455.285 -0.26741 447.908C-0.271941 446.596 -0.276475 445.284 -0.281143 443.932C-0.293335 440.306 -0.293111 436.68 -0.290749 433.054C-0.290339 429.137 -0.301393 425.22 -0.310867 421.303C-0.327458 413.633 -0.332975 405.964 -0.334091 398.295C-0.335043 392.058 -0.339163 385.821 -0.345497 379.583C-0.363105 361.883 -0.372335 344.182 -0.370834 326.482C-0.370754 325.528 -0.370673 324.575 -0.37059 323.592C-0.370508 322.637 -0.37043 321.682 -0.370346 320.699C-0.369534 305.234 -0.388661 289.77 -0.41687 274.305C-0.445634 258.41 -0.459406 242.515 -0.45768 226.62C-0.457017 217.703 -0.462454 208.786 -0.484032 199.869C-0.50229 192.274 -0.506559 184.68 -0.493019 177.086C-0.486513 173.216 -0.486285 169.346 -0.503723 165.476C-0.519563 161.924 -0.516479 158.372 -0.499153 154.82C-0.494679 152.946 -0.509657 151.071 -0.525635 149.197C-0.385782 131.793 6.20401 116.684 18 104C33.538 89.0573 51.5431 85.5399 72.2778 85.5798Z" fill="black"/>
<path d="M368 68C370.897 69.394 372.977 70.7291 375.252 73.0119C376.182 73.9373 376.182 73.9373 377.13 74.8815C377.799 75.5569 378.467 76.2323 379.155 76.9282C379.868 77.6405 380.58 78.3528 381.315 79.0867C383.668 81.4411 386.014 83.8025 388.359 86.1641C389.99 87.7983 391.621 89.4321 393.252 91.0655C397.544 95.3651 401.83 99.6706 406.115 103.977C410.488 108.371 414.867 112.76 419.246 117.148C427.836 125.76 436.42 134.378 445 143C443.709 145.835 442.351 147.901 440.158 150.108C439.284 150.995 439.284 150.995 438.391 151.899C437.75 152.539 437.109 153.179 436.449 153.839C435.428 154.87 435.428 154.87 434.386 155.922C432.099 158.229 429.804 160.528 427.51 162.828C425.87 164.479 424.231 166.13 422.592 167.781C418.134 172.27 413.669 176.751 409.202 181.231C406.412 184.03 403.622 186.829 400.833 189.629C393.106 197.385 385.377 205.14 377.64 212.887C377.145 213.382 376.65 213.878 376.141 214.389C375.644 214.885 375.148 215.382 374.637 215.894C373.632 216.901 372.626 217.908 371.621 218.914C371.122 219.414 370.624 219.913 370.11 220.428C362.034 228.516 353.974 236.619 345.92 244.728C337.645 253.06 329.358 261.378 321.057 269.683C316.399 274.344 311.747 279.011 307.109 283.692C302.745 288.096 298.364 292.484 293.97 296.858C292.362 298.465 290.76 300.078 289.164 301.697C286.981 303.911 284.777 306.102 282.567 308.288C281.944 308.93 281.321 309.573 280.679 310.234C275.945 314.849 271.405 316.584 265 318C263.729 318.297 262.458 318.593 261.149 318.899C259.931 319.144 258.713 319.389 257.458 319.642C256.776 319.78 256.093 319.919 255.389 320.062C253.173 320.51 250.956 320.951 248.738 321.391C247.177 321.703 245.617 322.015 244.056 322.327C240.803 322.976 237.55 323.62 234.296 324.263C230.138 325.084 225.983 325.921 221.829 326.761C218.614 327.409 215.397 328.047 212.18 328.681C210.647 328.985 209.115 329.293 207.583 329.605C205.442 330.039 203.298 330.459 201.154 330.876C199.938 331.118 198.722 331.36 197.47 331.609C192.286 332.193 188.412 332.013 184.125 328.938C180.773 324.304 180.803 319.734 181.429 314.231C181.679 312.919 181.942 311.609 182.216 310.302C182.357 309.579 182.498 308.856 182.644 308.111C183.11 305.746 183.593 303.385 184.078 301.023C184.41 299.368 184.74 297.712 185.07 296.056C185.761 292.597 186.462 289.139 187.168 285.683C188.072 281.263 188.956 276.839 189.835 272.415C190.514 268.999 191.203 265.585 191.894 262.171C192.223 260.541 192.55 258.911 192.874 257.28C193.33 254.998 193.797 252.718 194.267 250.439C194.463 249.438 194.463 249.438 194.664 248.417C196.365 240.312 200.042 235.52 205.777 229.863C206.469 229.167 207.162 228.472 207.876 227.756C210.195 225.432 212.524 223.119 214.854 220.805C216.52 219.14 218.186 217.474 219.851 215.808C224.37 211.287 228.899 206.775 233.43 202.266C237.684 198.028 241.932 193.784 246.179 189.54C254.591 181.135 263.009 172.737 271.431 164.343C279.611 156.19 287.788 148.035 295.96 139.875C296.464 139.372 296.968 138.869 297.488 138.35C300.016 135.825 302.545 133.301 305.073 130.776C326.039 109.841 347.016 88.9171 368 68Z" fill="black"/>
<path d="M487.812 8.25003C499.231 16.0724 507.621 26.67 511.34 40.1446C514.037 55.8978 512.622 70.8459 503.812 84.4407C497.092 93.9329 488.171 101.954 479.938 110.125C478.774 111.284 477.61 112.443 476.447 113.602C473.634 116.404 470.818 119.203 468 122C465.077 120.68 463.007 119.256 460.748 116.988C460.128 116.371 459.508 115.754 458.87 115.119C458.201 114.443 457.533 113.768 456.845 113.072C456.132 112.36 455.42 111.647 454.685 110.913C452.332 108.559 449.986 106.197 447.641 103.836C446.01 102.202 444.379 100.568 442.748 98.9345C438.456 94.635 434.17 90.3294 429.885 86.0227C425.512 81.6287 421.133 77.2404 416.754 72.8516C408.164 64.2399 399.58 55.622 391 47C392.35 44.2056 393.624 42.1188 395.806 39.9031C396.371 39.3254 396.936 38.7476 397.518 38.1524C398.13 37.5388 398.741 36.9252 399.371 36.293C400.008 35.6494 400.645 35.0058 401.301 34.3426C402.653 32.9809 404.007 31.6219 405.364 30.2654C407.409 28.2157 409.438 26.1505 411.467 24.084C432.325 3.04388 459.989 -8.33788 487.812 8.25003Z" fill="black"/>
</g>
<defs>
<clipPath id="clip0_140_283">
<rect width="512" height="512" fill="white"/>
</clipPath>
</defs>
</svg>
