<svg width="16" height="16" viewBox="0 0 16 16" fill="none" xmlns="http://www.w3.org/2000/svg">
<path d="M4.88889 4.11111V3.48889C4.88889 2.6177 4.88889 2.1821 5.05844 1.84935C5.20757 1.55665 5.44554 1.31868 5.73824 1.16955C6.07099 1 6.50659 1 7.37778 1H8.62222C9.49341 1 9.92904 1 10.2618 1.16955C10.5545 1.31868 10.7925 1.55665 10.9416 1.84935C11.1111 2.1821 11.1111 2.6177 11.1111 3.48889V4.11111M11.1111 4.11111H4.73333C4.50723 4.11111 4.30068 4.11111 4.11111 4.11243M11.1111 4.11111H11.8889M4.11111 15V4.11243M4.11111 4.11243C3.20505 4.11873 2.68679 4.15512 2.27402 4.36543C1.83498 4.58913 1.47802 4.94609 1.25432 5.38513C1 5.88426 1 6.53762 1 7.84444V11.2667C1 12.5735 1 13.2268 1.25432 13.726C1.47802 14.1651 1.83498 14.522 2.27402 14.7457C2.77315 15 3.42654 15 4.73333 15H11.2667C12.5735 15 13.2268 15 13.726 14.7457C14.1651 14.522 14.522 14.1651 14.7457 13.726C15 13.2268 15 12.5735 15 11.2667V7.84444C15 6.53762 15 5.88426 14.7457 5.38513C14.522 4.94609 14.1651 4.58913 13.726 4.36543C13.2268 4.11111 12.5735 4.11111 11.2667 4.11111H11.8889M11.8889 15V4.11111" stroke="#57606E" stroke-linecap="round" stroke-linejoin="round"/>
</svg>
