<svg width="22" height="22" viewBox="0 0 22 22" fill="none" xmlns="http://www.w3.org/2000/svg">
<path fill-rule="evenodd" clip-rule="evenodd" d="M19.2565 7.58082C20.3446 8.36457 21.0834 9.57916 21.0834 11C21.0834 12.4208 20.3446 13.6363 19.2565 14.4192C19.4765 15.741 19.1337 17.1307 18.1317 18.1317C17.128 19.1354 15.7392 19.4691 14.4229 19.2546C13.6428 20.3463 12.4172 21.0833 11.0001 21.0833C9.57925 21.0833 8.36191 20.3436 7.58 19.2537C6.26183 19.4691 4.87216 19.1363 3.8675 18.1317C2.86375 17.1279 2.53008 15.7382 2.75191 14.4192C1.66475 13.6372 0.916748 12.4217 0.916748 11C0.916748 9.57824 1.66475 8.36182 2.75191 7.58082C2.53008 6.26174 2.86375 4.87207 3.86841 3.86832C4.87033 2.86549 6.26091 2.52357 7.58733 2.74357C8.36466 1.65366 9.582 0.916656 11.0001 0.916656C12.4163 0.916656 13.6401 1.65274 14.4211 2.74357C15.7429 2.52357 17.1307 2.86732 18.1317 3.86832C19.1337 4.86932 19.4774 6.25899 19.2565 7.58082ZM15.1993 7.50382C15.2973 7.57376 15.3806 7.66231 15.4444 7.76442C15.5081 7.86654 15.5512 7.98021 15.571 8.09896C15.5908 8.2177 15.5871 8.33919 15.5599 8.45649C15.5328 8.57378 15.4829 8.68459 15.4129 8.78257L10.8296 15.1992C10.7522 15.3076 10.6522 15.3978 10.5364 15.4636C10.4206 15.5294 10.2919 15.5691 10.1592 15.5801C10.0265 15.5911 9.89303 15.5731 9.76802 15.5272C9.64301 15.4814 9.52948 15.4089 9.43533 15.3147L6.68533 12.5647C6.51835 12.3919 6.42596 12.1603 6.42805 11.92C6.43013 11.6796 6.52654 11.4497 6.6965 11.2797C6.86645 11.1098 7.09637 11.0134 7.33671 11.0113C7.57706 11.0092 7.80861 11.1016 7.9815 11.2686L9.96608 13.2532L13.9206 7.71649C14.062 7.51872 14.2761 7.38521 14.5159 7.34533C14.7557 7.30545 15.0016 7.36246 15.1993 7.50382Z" fill="#3AA0FF"/>
</svg>
