<svg width="512" height="512" viewBox="0 0 512 512" fill="none" xmlns="http://www.w3.org/2000/svg">
<g clip-path="url(#clip0_134_276)">
<path d="M301 2.99981C301.913 3.1661 302.826 3.33239 303.767 3.50372C345.399 11.1634 384.161 29.4061 417 55.9998C417.545 56.4399 418.089 56.8799 418.65 57.3333C432.722 68.8116 445.937 81.577 457 95.9998C457.759 96.9305 458.519 97.8612 459.301 98.8201C467.15 108.609 473.619 119.213 480 130C480.584 130.977 480.584 130.977 481.18 131.974C496.312 157.602 505.688 187.645 510 217C510.177 218.204 510.355 219.409 510.537 220.65C512.136 232.307 512.358 243.872 512.313 255.625C512.31 257.08 512.31 257.08 512.307 258.564C512.262 272.913 511.766 286.883 509 301C508.834 301.913 508.667 302.826 508.496 303.766C500.29 348.37 480.014 390.063 450 424C449.276 424.835 448.551 425.67 447.805 426.531C438.06 437.606 427.66 447.951 416 457C415.065 457.763 414.131 458.526 413.168 459.312C380.904 485.157 341.479 501.627 301 509C300.164 509.164 299.329 509.327 298.468 509.496C270.758 514.786 238.649 514.417 211 509C210.087 508.834 209.174 508.667 208.233 508.496C166.601 500.836 127.84 482.594 95.0001 456C94.4556 455.56 93.9111 455.12 93.3502 454.666C79.2783 443.188 66.0632 430.423 55.0001 416C54.2408 415.069 53.4815 414.138 52.6993 413.18C26.8404 380.928 10.3721 341.475 3.00005 301C2.83634 300.164 2.67263 299.329 2.50396 298.468C-2.78651 270.758 -2.41673 238.649 3.00005 211C3.16634 210.087 3.33263 209.174 3.50396 208.233C11.1637 166.601 29.4063 127.839 56.0001 94.9998C56.4401 94.4553 56.8802 93.9109 57.3335 93.3499C68.8118 79.2781 81.5772 66.063 96.0001 54.9998C96.9308 54.2406 97.8615 53.4813 98.8204 52.699C131.072 26.8402 170.525 10.3719 211 2.99981C211.836 2.8361 212.671 2.67239 213.532 2.50372C241.242 -2.78676 273.351 -2.41698 301 2.99981ZM161 61.9998C160.289 62.3424 159.578 62.6849 158.845 63.0379C147.432 68.611 137.149 75.3843 127 82.9998C126.065 83.6998 125.131 84.3997 124.168 85.1209C117.063 90.6421 110.518 96.8066 104 103C103.171 103.786 102.342 104.572 101.488 105.383C95.8405 110.883 90.8339 116.777 86.0001 123C85.5693 123.554 85.1386 124.108 84.6949 124.679C60.5121 156.052 45.9159 192.752 41.0001 232C40.8686 232.99 40.7371 233.98 40.6016 235C36.3228 274.781 44.6579 315.206 62.0001 351C62.3426 351.711 62.6852 352.422 63.0381 353.155C68.6113 364.568 75.3846 374.85 83.0001 385C83.7 385.934 84.4 386.869 85.1211 387.832C90.6423 394.937 96.8068 401.482 103 408C104.18 409.243 104.18 409.243 105.383 410.512C110.883 416.159 116.777 421.166 123 426C123.554 426.431 124.109 426.861 124.68 427.305C156.052 451.488 192.752 466.084 232 471C233.485 471.197 233.485 471.197 235 471.398C274.781 475.677 315.207 467.342 351 450C351.711 449.657 352.422 449.315 353.155 448.962C364.569 443.389 374.851 436.615 385 429C385.935 428.3 386.869 427.6 387.832 426.879C394.937 421.358 401.483 415.193 408 409C408.829 408.213 409.658 407.427 410.512 406.617C416.16 401.117 421.166 395.223 426 389C426.646 388.168 426.646 388.168 427.305 387.32C451.488 355.948 466.084 319.248 471 280C471.197 278.515 471.197 278.515 471.398 277C475.677 237.219 467.342 196.793 450 161C449.657 160.289 449.315 159.578 448.962 158.845C443.389 147.431 436.616 137.149 429 127C428.3 126.065 427.6 125.131 426.879 124.168C421.358 117.063 415.193 110.517 409 104C407.821 102.757 407.821 102.757 406.617 101.488C401.117 95.8403 395.223 90.8336 389 85.9998C388.446 85.5691 387.891 85.1384 387.32 84.6946C355.948 60.5119 319.248 45.9156 280 40.9998C279.01 40.8683 278.02 40.7368 277 40.6014C237.219 36.3226 196.794 44.6576 161 61.9998Z" fill="white"/>
<path d="M267.176 137.656C271.253 140.66 274.395 144.185 276 149C276.091 151.723 276.126 154.42 276.114 157.143C276.114 157.973 276.114 158.802 276.114 159.657C276.113 162.4 276.106 165.143 276.098 167.887C276.096 169.788 276.094 171.689 276.093 173.591C276.09 178.597 276.08 183.603 276.069 188.609C276.059 193.716 276.054 198.824 276.049 203.932C276.038 213.954 276.021 223.977 276 234C277.035 233.991 278.069 233.982 279.135 233.973C288.904 233.892 298.673 233.832 308.442 233.793C313.464 233.772 318.486 233.744 323.508 233.698C328.358 233.655 333.208 233.631 338.058 233.62C339.905 233.613 341.751 233.599 343.598 233.577C346.193 233.548 348.786 233.544 351.381 233.546C352.138 233.531 352.894 233.517 353.674 233.502C360.071 233.551 365.241 235.565 370.059 239.816C370.514 240.392 370.969 240.969 371.438 241.562C371.911 242.141 372.384 242.72 372.871 243.316C376.149 248.205 375.486 254.381 375 260C373.451 266.311 369.727 269.426 364.414 272.871C359.209 275.305 353.62 275.141 347.975 275.113C347.194 275.114 346.413 275.114 345.608 275.114C343.043 275.113 340.479 275.105 337.914 275.098C336.129 275.096 334.344 275.094 332.559 275.093C327.874 275.089 323.188 275.08 318.503 275.069C313.717 275.058 308.931 275.054 304.145 275.049C294.763 275.038 285.382 275.021 276 275C276.009 276.034 276.018 277.069 276.027 278.135C276.108 287.904 276.168 297.673 276.207 307.442C276.228 312.464 276.256 317.486 276.302 322.508C276.345 327.358 276.369 332.207 276.38 337.058C276.387 338.904 276.401 340.751 276.423 342.598C276.452 345.192 276.456 347.786 276.454 350.381C276.469 351.137 276.483 351.894 276.498 352.674C276.449 359.081 274.521 364.46 269.957 369.058C263.917 372.942 258.81 374.974 251.61 373.515C246.423 371.97 241.951 370.042 238.927 365.327C236.178 360.196 235.436 356.156 235.546 350.381C235.545 349.56 235.545 348.74 235.544 347.894C235.547 345.21 235.578 342.527 235.61 339.844C235.617 337.972 235.623 336.1 235.627 334.228C235.642 329.322 235.681 324.417 235.725 319.511C235.767 314.497 235.785 309.483 235.805 304.469C235.848 294.645 235.916 284.823 236 275C234.523 275.007 234.523 275.007 233.017 275.013C223.719 275.054 214.421 275.084 205.123 275.103C200.343 275.114 195.563 275.128 190.783 275.151C186.167 275.173 181.55 275.184 176.934 275.19C175.176 275.193 173.419 275.2 171.662 275.211C169.192 275.226 166.722 275.228 164.252 275.227C163.533 275.234 162.813 275.241 162.072 275.249C154.146 275.217 146.79 273.731 141 268C136.898 262.785 136.372 257.33 136.617 250.836C137.358 245.346 139.827 241.863 143.938 238.187C149.358 234.315 153.714 233.711 160.279 233.773C161.099 233.773 161.919 233.772 162.764 233.772C165.464 233.773 168.163 233.789 170.863 233.805C172.74 233.808 174.616 233.811 176.492 233.813C181.422 233.821 186.352 233.84 191.283 233.863C196.317 233.883 201.351 233.892 206.385 233.902C216.257 233.924 226.128 233.958 236 234C235.991 232.951 235.982 231.901 235.973 230.82C235.892 220.918 235.832 211.017 235.793 201.115C235.772 196.024 235.744 190.934 235.698 185.844C235.655 180.929 235.631 176.014 235.621 171.099C235.613 169.227 235.599 167.354 235.577 165.482C235.548 162.853 235.544 160.226 235.546 157.597C235.532 156.828 235.517 156.058 235.502 155.265C235.549 149.103 237.354 144.958 241.527 140.293C249.349 134.162 258.258 132.591 267.176 137.656Z" fill="white"/>
</g>
<defs>
<clipPath id="clip0_134_276">
<rect width="512" height="512" fill="white"/>
</clipPath>
</defs>
</svg>
