<svg width="16" height="16" viewBox="0 0 512 512" fill="none" xmlns="http://www.w3.org/2000/svg">
<g clip-path="url(#clip0_140_287)">
<path d="M84 173C197.52 173 311.04 173 428 173C426.851 197.124 426.851 197.124 426.096 207.351C426.011 208.534 425.926 209.717 425.838 210.935C425.606 214.141 425.373 217.346 425.138 220.551C424.883 224.038 424.631 227.525 424.379 231.011C423.887 237.81 423.392 244.608 422.896 251.406C422.492 256.937 422.089 262.467 421.687 267.998C421.601 269.186 421.601 269.186 421.513 270.397C421.396 272.007 421.279 273.616 421.162 275.225C420.069 290.255 418.973 305.284 417.875 320.313C416.874 334.03 415.877 347.746 414.882 361.462C413.857 375.598 412.829 389.732 411.797 403.867C411.22 411.783 410.643 419.698 410.07 427.614C409.582 434.346 409.092 441.079 408.598 447.811C408.346 451.237 408.096 454.664 407.85 458.091C404.756 500.99 404.756 500.99 397.223 507.547C392.997 510.727 389.686 512.122 384.468 512.137C383.533 512.142 382.599 512.147 381.636 512.152C380.607 512.153 379.578 512.153 378.519 512.154C377.427 512.158 376.336 512.163 375.212 512.167C371.536 512.181 367.86 512.187 364.185 512.193C361.557 512.201 358.929 512.209 356.301 512.218C348.402 512.242 340.502 512.257 332.603 512.27C330.372 512.273 328.14 512.277 325.909 512.281C312.053 512.307 298.196 512.329 284.34 512.341C281.13 512.344 277.921 512.347 274.711 512.35C273.515 512.351 273.515 512.351 272.294 512.352C259.373 512.365 246.452 512.398 233.531 512.44C220.264 512.482 206.998 512.506 193.732 512.511C186.283 512.515 178.835 512.526 171.387 512.559C165.043 512.587 158.7 512.598 152.356 512.587C149.12 512.582 145.885 512.587 142.65 512.609C139.138 512.632 135.628 512.624 132.116 512.608C131.099 512.622 130.081 512.636 129.033 512.65C121.681 512.568 116.729 510.707 111.477 505.487C106.633 499.938 105.598 495.267 105.004 488.07C104.923 487.15 104.841 486.23 104.757 485.283C103.713 473.18 102.899 461.058 102.077 448.938C101.835 445.378 101.59 441.818 101.345 438.258C100.868 431.317 100.395 424.376 99.9221 417.435C99.5379 411.793 99.1526 406.15 98.7666 400.508C98.7114 399.7 98.6561 398.893 98.5992 398.061C98.4869 396.42 98.3747 394.779 98.2624 393.138C97.2143 377.816 96.1698 362.493 95.1264 347.171C94.2322 334.042 93.3348 320.913 92.435 307.784C91.3872 292.494 90.3415 277.204 89.2993 261.913C89.1881 260.282 89.0769 258.651 88.9657 257.02C88.8837 255.817 88.8837 255.817 88.8 254.589C88.4156 248.952 88.0295 243.315 87.6428 237.678C87.1717 230.811 86.7031 223.944 86.2376 217.077C86.0003 213.578 85.7619 210.079 85.5206 206.58C85.2592 202.782 85.002 198.983 84.7458 195.185C84.6693 194.088 84.5929 192.991 84.5141 191.862C84.4457 190.834 84.3773 189.806 84.3067 188.748C84.2471 187.873 84.1874 186.998 84.1259 186.097C83.9485 181.734 84 177.366 84 173ZM194 224C190.59 228.277 190.575 232.36 190.619 237.616C190.614 238.482 190.61 239.349 190.605 240.242C190.593 243.144 190.602 246.047 190.612 248.949C190.608 251.03 190.602 253.112 190.596 255.193C190.582 260.846 190.588 266.498 190.597 272.151C190.605 278.064 190.598 283.977 190.593 289.889C190.587 299.819 190.595 309.749 190.609 319.679C190.625 331.163 190.62 342.647 190.603 354.131C190.59 363.986 190.588 373.842 190.596 383.698C190.6 389.586 190.601 395.474 190.591 401.363C190.582 406.898 190.588 412.433 190.606 417.969C190.61 420.002 190.609 422.035 190.602 424.068C190.594 426.84 190.604 429.612 190.619 432.384C190.609 433.594 190.609 433.594 190.599 434.829C190.647 439.4 191.123 442.392 194 446C198.771 449.395 202.008 450.872 208 450C212.619 447.424 216.306 445.081 218 440C218.107 437.217 218.157 434.459 218.161 431.676C218.166 430.817 218.171 429.957 218.176 429.072C218.192 426.182 218.2 423.292 218.209 420.401C218.218 418.333 218.228 416.266 218.238 414.198C218.27 407.397 218.29 400.597 218.309 393.797C218.312 392.64 218.315 391.484 218.319 390.293C218.349 379.39 218.376 368.486 218.393 357.583C218.415 343.63 218.457 329.677 218.526 315.724C218.574 305.917 218.598 296.11 218.605 286.303C218.61 280.443 218.625 274.584 218.665 268.725C218.702 263.212 218.71 257.7 218.697 252.188C218.697 250.165 218.707 248.143 218.729 246.12C218.756 243.357 218.747 240.596 218.728 237.832C218.745 237.033 218.762 236.235 218.779 235.412C218.69 230.092 217.275 227.319 213.678 223.416C210.749 220.944 208.506 220.057 204.687 219.625C199.948 220.107 197.882 221.238 194 224ZM295.125 226.438C292.861 231.595 292.855 236.666 292.866 242.223C292.864 243.047 292.862 243.871 292.859 244.72C292.853 247.48 292.854 250.24 292.855 253C292.852 254.979 292.848 256.959 292.845 258.938C292.836 264.314 292.833 269.69 292.833 275.066C292.832 279.554 292.828 284.042 292.825 288.53C292.816 299.119 292.814 309.708 292.815 320.296C292.815 331.219 292.805 342.142 292.789 353.065C292.776 362.443 292.77 371.822 292.771 381.2C292.771 386.801 292.769 392.402 292.758 398.003C292.748 403.271 292.748 408.539 292.755 413.807C292.757 415.739 292.754 417.671 292.748 419.603C292.74 422.243 292.745 424.883 292.753 427.523C292.748 428.285 292.742 429.047 292.737 429.833C292.776 435.847 293.369 441.069 297.375 445.812C300.236 448.196 302.376 449.885 306.148 450.152C312.02 449.586 314.909 448.291 319 444C321.648 440.197 321.285 436.04 321.267 431.587C321.272 430.73 321.276 429.873 321.281 428.991C321.294 426.115 321.292 423.24 321.291 420.364C321.296 418.304 321.303 416.244 321.311 414.184C321.329 408.585 321.333 402.986 321.335 397.387C321.336 392.715 321.344 388.043 321.351 383.371C321.367 372.349 321.372 361.328 321.371 350.306C321.369 338.932 321.39 327.557 321.422 316.183C321.448 306.422 321.459 296.66 321.458 286.899C321.457 281.067 321.463 275.235 321.484 269.403C321.503 263.919 321.504 258.434 321.489 252.95C321.487 250.937 321.492 248.923 321.504 246.91C321.519 244.162 321.51 241.415 321.494 238.667C321.505 237.87 321.515 237.073 321.526 236.252C321.461 231.053 320.406 228.14 317 224C313.768 221.271 311.758 220.11 307.562 219.5C302.209 220.251 298.515 222.031 295.125 226.438Z" fill="#FC0004"/>
<path d="M91.6061 77.6123C93.0834 77.6082 94.5607 77.6027 96.038 77.596C100.08 77.5816 104.122 77.5858 108.164 77.5932C112.531 77.5979 116.897 77.5854 121.263 77.5752C129.809 77.558 138.356 77.5571 146.903 77.5624C153.85 77.5664 160.798 77.565 167.746 77.5596C169.23 77.5585 169.23 77.5585 170.744 77.5574C172.754 77.5558 174.764 77.5543 176.775 77.5527C195.618 77.539 214.461 77.5445 233.305 77.5559C250.537 77.5659 267.77 77.5529 285.002 77.529C302.705 77.5046 320.408 77.495 338.111 77.5016C348.047 77.5051 357.982 77.5029 367.918 77.4854C376.375 77.4707 384.832 77.47 393.289 77.4875C397.603 77.496 401.916 77.4981 406.229 77.4828C410.181 77.469 414.133 77.4737 418.085 77.4931C419.511 77.4968 420.937 77.4939 422.362 77.4834C434.254 77.4025 444.235 79.4984 453 88C466.621 104.588 461 122.583 461 145C325.7 145 190.4 145 51 145C51 96.6639 51 96.6639 61 86C69.7982 77.8505 80.1431 77.5594 91.6061 77.6123Z" fill="#FB0004"/>
<path d="M186.098 -0.140448C188.011 -0.149014 188.011 -0.149014 189.964 -0.157752C191.381 -0.158997 192.798 -0.160122 194.214 -0.161139C195.704 -0.165768 197.194 -0.170793 198.684 -0.176184C202.734 -0.189306 206.783 -0.195753 210.833 -0.200195C213.362 -0.203126 215.892 -0.207231 218.422 -0.211699C226.335 -0.225373 234.249 -0.235041 242.162 -0.238901C251.299 -0.243383 260.436 -0.260939 269.574 -0.289902C276.635 -0.311509 283.697 -0.321605 290.759 -0.322942C294.977 -0.323991 299.195 -0.32991 303.413 -0.347762C307.381 -0.364227 311.349 -0.366406 315.316 -0.357623C316.772 -0.356852 318.228 -0.361206 319.683 -0.371081C321.672 -0.383778 323.66 -0.37614 325.648 -0.367499C326.761 -0.368966 327.873 -0.370432 329.019 -0.371943C333.614 0.201372 336.157 2.08625 339.25 5.43749C347.226 17.1161 342 43.0772 342 50C285.24 50 228.48 50 170 50C170 8.56249 170 8.56249 175 2.62499C178.543 -0.253732 181.697 -0.128671 186.098 -0.140448Z" fill="#FB0005"/>
</g>
<defs>
<clipPath id="clip0_140_287">
<rect width="512" height="512" fill="white"/>
</clipPath>
</defs>
</svg>
